<svg xmlns="http://www.w3.org/2000/svg" width="270" height="270" viewBox="0 0 270 270" shape-rendering="crispEdges"><rect width="100%" height="100%" fill="#fff"/><rect x="24" y="24" width="6" height="6" fill="#000"/><rect x="30" y="24" width="6" height="6" fill="#000"/><rect x="36" y="24" width="6" height="6" fill="#000"/><rect x="42" y="24" width="6" height="6" fill="#000"/><rect x="48" y="24" width="6" height="6" fill="#000"/><rect x="54" y="24" width="6" height="6" fill="#000"/><rect x="60" y="24" width="6" height="6" fill="#000"/><rect x="72" y="24" width="6" height="6" fill="#000"/><rect x="84" y="24" width="6" height="6" fill="#000"/><rect x="90" y="24" width="6" height="6" fill="#000"/><rect x="96" y="24" width="6" height="6" fill="#000"/><rect x="102" y="24" width="6" height="6" fill="#000"/><rect x="132" y="24" width="6" height="6" fill="#000"/><rect x="144" y="24" width="6" height="6" fill="#000"/><rect x="150" y="24" width="6" height="6" fill="#000"/><rect x="162" y="24" width="6" height="6" fill="#000"/><rect x="192" y="24" width="6" height="6" fill="#000"/><rect x="204" y="24" width="6" height="6" fill="#000"/><rect x="210" y="24" width="6" height="6" fill="#000"/><rect x="216" y="24" width="6" height="6" fill="#000"/><rect x="222" y="24" width="6" height="6" fill="#000"/><rect x="228" y="24" width="6" height="6" fill="#000"/><rect x="234" y="24" width="6" height="6" fill="#000"/><rect x="240" y="24" width="6" height="6" fill="#000"/><rect x="24" y="30" width="6" height="6" fill="#000"/><rect x="60" y="30" width="6" height="6" fill="#000"/><rect x="72" y="30" width="6" height="6" fill="#000"/><rect x="78" y="30" width="6" height="6" fill="#000"/><rect x="84" y="30" width="6" height="6" fill="#000"/><rect x="90" y="30" width="6" height="6" fill="#000"/><rect x="96" y="30" width="6" height="6" fill="#000"/><rect x="102" y="30" width="6" height="6" fill="#000"/><rect x="108" y="30" width="6" height="6" fill="#000"/><rect x="114" y="30" width="6" height="6" fill="#000"/><rect x="138" y="30" width="6" height="6" fill="#000"/><rect x="144" y="30" width="6" height="6" fill="#000"/><rect x="156" y="30" width="6" height="6" fill="#000"/><rect x="162" y="30" width="6" height="6" fill="#000"/><rect x="168" y="30" width="6" height="6" fill="#000"/><rect x="174" y="30" width="6" height="6" fill="#000"/><rect x="204" y="30" width="6" height="6" fill="#000"/><rect x="240" y="30" width="6" height="6" fill="#000"/><rect x="24" y="36" width="6" height="6" fill="#000"/><rect x="36" y="36" width="6" height="6" fill="#000"/><rect x="42" y="36" width="6" height="6" fill="#000"/><rect x="48" y="36" width="6" height="6" fill="#000"/><rect x="60" y="36" width="6" height="6" fill="#000"/><rect x="78" y="36" width="6" height="6" fill="#000"/><rect x="84" y="36" width="6" height="6" fill="#000"/><rect x="96" y="36" width="6" height="6" fill="#000"/><rect x="102" y="36" width="6" height="6" fill="#000"/><rect x="114" y="36" width="6" height="6" fill="#000"/><rect x="132" y="36" width="6" height="6" fill="#000"/><rect x="144" y="36" width="6" height="6" fill="#000"/><rect x="156" y="36" width="6" height="6" fill="#000"/><rect x="168" y="36" width="6" height="6" fill="#000"/><rect x="174" y="36" width="6" height="6" fill="#000"/><rect x="186" y="36" width="6" height="6" fill="#000"/><rect x="204" y="36" width="6" height="6" fill="#000"/><rect x="216" y="36" width="6" height="6" fill="#000"/><rect x="222" y="36" width="6" height="6" fill="#000"/><rect x="228" y="36" width="6" height="6" fill="#000"/><rect x="240" y="36" width="6" height="6" fill="#000"/><rect x="24" y="42" width="6" height="6" fill="#000"/><rect x="36" y="42" width="6" height="6" fill="#000"/><rect x="42" y="42" width="6" height="6" fill="#000"/><rect x="48" y="42" width="6" height="6" fill="#000"/><rect x="60" y="42" width="6" height="6" fill="#000"/><rect x="72" y="42" width="6" height="6" fill="#000"/><rect x="84" y="42" width="6" height="6" fill="#000"/><rect x="90" y="42" width="6" height="6" fill="#000"/><rect x="96" y="42" width="6" height="6" fill="#000"/><rect x="108" y="42" width="6" height="6" fill="#000"/><rect x="126" y="42" width="6" height="6" fill="#000"/><rect x="132" y="42" width="6" height="6" fill="#000"/><rect x="138" y="42" width="6" height="6" fill="#000"/><rect x="162" y="42" width="6" height="6" fill="#000"/><rect x="174" y="42" width="6" height="6" fill="#000"/><rect x="192" y="42" width="6" height="6" fill="#000"/><rect x="204" y="42" width="6" height="6" fill="#000"/><rect x="216" y="42" width="6" height="6" fill="#000"/><rect x="222" y="42" width="6" height="6" fill="#000"/><rect x="228" y="42" width="6" height="6" fill="#000"/><rect x="240" y="42" width="6" height="6" fill="#000"/><rect x="24" y="48" width="6" height="6" fill="#000"/><rect x="36" y="48" width="6" height="6" fill="#000"/><rect x="42" y="48" width="6" height="6" fill="#000"/><rect x="48" y="48" width="6" height="6" fill="#000"/><rect x="60" y="48" width="6" height="6" fill="#000"/><rect x="78" y="48" width="6" height="6" fill="#000"/><rect x="114" y="48" width="6" height="6" fill="#000"/><rect x="126" y="48" width="6" height="6" fill="#000"/><rect x="132" y="48" width="6" height="6" fill="#000"/><rect x="138" y="48" width="6" height="6" fill="#000"/><rect x="174" y="48" width="6" height="6" fill="#000"/><rect x="180" y="48" width="6" height="6" fill="#000"/><rect x="186" y="48" width="6" height="6" fill="#000"/><rect x="192" y="48" width="6" height="6" fill="#000"/><rect x="204" y="48" width="6" height="6" fill="#000"/><rect x="216" y="48" width="6" height="6" fill="#000"/><rect x="222" y="48" width="6" height="6" fill="#000"/><rect x="228" y="48" width="6" height="6" fill="#000"/><rect x="240" y="48" width="6" height="6" fill="#000"/><rect x="24" y="54" width="6" height="6" fill="#000"/><rect x="60" y="54" width="6" height="6" fill="#000"/><rect x="84" y="54" width="6" height="6" fill="#000"/><rect x="90" y="54" width="6" height="6" fill="#000"/><rect x="108" y="54" width="6" height="6" fill="#000"/><rect x="114" y="54" width="6" height="6" fill="#000"/><rect x="138" y="54" width="6" height="6" fill="#000"/><rect x="144" y="54" width="6" height="6" fill="#000"/><rect x="150" y="54" width="6" height="6" fill="#000"/><rect x="156" y="54" width="6" height="6" fill="#000"/><rect x="180" y="54" width="6" height="6" fill="#000"/><rect x="204" y="54" width="6" height="6" fill="#000"/><rect x="240" y="54" width="6" height="6" fill="#000"/><rect x="24" y="60" width="6" height="6" fill="#000"/><rect x="30" y="60" width="6" height="6" fill="#000"/><rect x="36" y="60" width="6" height="6" fill="#000"/><rect x="42" y="60" width="6" height="6" fill="#000"/><rect x="48" y="60" width="6" height="6" fill="#000"/><rect x="54" y="60" width="6" height="6" fill="#000"/><rect x="60" y="60" width="6" height="6" fill="#000"/><rect x="72" y="60" width="6" height="6" fill="#000"/><rect x="84" y="60" width="6" height="6" fill="#000"/><rect x="96" y="60" width="6" height="6" fill="#000"/><rect x="108" y="60" width="6" height="6" fill="#000"/><rect x="120" y="60" width="6" height="6" fill="#000"/><rect x="132" y="60" width="6" height="6" fill="#000"/><rect x="144" y="60" width="6" height="6" fill="#000"/><rect x="156" y="60" width="6" height="6" fill="#000"/><rect x="168" y="60" width="6" height="6" fill="#000"/><rect x="180" y="60" width="6" height="6" fill="#000"/><rect x="192" y="60" width="6" height="6" fill="#000"/><rect x="204" y="60" width="6" height="6" fill="#000"/><rect x="210" y="60" width="6" height="6" fill="#000"/><rect x="216" y="60" width="6" height="6" fill="#000"/><rect x="222" y="60" width="6" height="6" fill="#000"/><rect x="228" y="60" width="6" height="6" fill="#000"/><rect x="234" y="60" width="6" height="6" fill="#000"/><rect x="240" y="60" width="6" height="6" fill="#000"/><rect x="72" y="66" width="6" height="6" fill="#000"/><rect x="78" y="66" width="6" height="6" fill="#000"/><rect x="90" y="66" width="6" height="6" fill="#000"/><rect x="96" y="66" width="6" height="6" fill="#000"/><rect x="102" y="66" width="6" height="6" fill="#000"/><rect x="126" y="66" width="6" height="6" fill="#000"/><rect x="132" y="66" width="6" height="6" fill="#000"/><rect x="138" y="66" width="6" height="6" fill="#000"/><rect x="144" y="66" width="6" height="6" fill="#000"/><rect x="168" y="66" width="6" height="6" fill="#000"/><rect x="180" y="66" width="6" height="6" fill="#000"/><rect x="192" y="66" width="6" height="6" fill="#000"/><rect x="24" y="72" width="6" height="6" fill="#000"/><rect x="36" y="72" width="6" height="6" fill="#000"/><rect x="42" y="72" width="6" height="6" fill="#000"/><rect x="54" y="72" width="6" height="6" fill="#000"/><rect x="60" y="72" width="6" height="6" fill="#000"/><rect x="66" y="72" width="6" height="6" fill="#000"/><rect x="84" y="72" width="6" height="6" fill="#000"/><rect x="96" y="72" width="6" height="6" fill="#000"/><rect x="102" y="72" width="6" height="6" fill="#000"/><rect x="120" y="72" width="6" height="6" fill="#000"/><rect x="138" y="72" width="6" height="6" fill="#000"/><rect x="144" y="72" width="6" height="6" fill="#000"/><rect x="150" y="72" width="6" height="6" fill="#000"/><rect x="168" y="72" width="6" height="6" fill="#000"/><rect x="180" y="72" width="6" height="6" fill="#000"/><rect x="192" y="72" width="6" height="6" fill="#000"/><rect x="204" y="72" width="6" height="6" fill="#000"/><rect x="222" y="72" width="6" height="6" fill="#000"/><rect x="234" y="72" width="6" height="6" fill="#000"/><rect x="240" y="72" width="6" height="6" fill="#000"/><rect x="30" y="78" width="6" height="6" fill="#000"/><rect x="72" y="78" width="6" height="6" fill="#000"/><rect x="78" y="78" width="6" height="6" fill="#000"/><rect x="84" y="78" width="6" height="6" fill="#000"/><rect x="90" y="78" width="6" height="6" fill="#000"/><rect x="102" y="78" width="6" height="6" fill="#000"/><rect x="108" y="78" width="6" height="6" fill="#000"/><rect x="114" y="78" width="6" height="6" fill="#000"/><rect x="120" y="78" width="6" height="6" fill="#000"/><rect x="162" y="78" width="6" height="6" fill="#000"/><rect x="168" y="78" width="6" height="6" fill="#000"/><rect x="174" y="78" width="6" height="6" fill="#000"/><rect x="192" y="78" width="6" height="6" fill="#000"/><rect x="210" y="78" width="6" height="6" fill="#000"/><rect x="222" y="78" width="6" height="6" fill="#000"/><rect x="234" y="78" width="6" height="6" fill="#000"/><rect x="24" y="84" width="6" height="6" fill="#000"/><rect x="30" y="84" width="6" height="6" fill="#000"/><rect x="42" y="84" width="6" height="6" fill="#000"/><rect x="48" y="84" width="6" height="6" fill="#000"/><rect x="60" y="84" width="6" height="6" fill="#000"/><rect x="66" y="84" width="6" height="6" fill="#000"/><rect x="72" y="84" width="6" height="6" fill="#000"/><rect x="78" y="84" width="6" height="6" fill="#000"/><rect x="90" y="84" width="6" height="6" fill="#000"/><rect x="96" y="84" width="6" height="6" fill="#000"/><rect x="108" y="84" width="6" height="6" fill="#000"/><rect x="114" y="84" width="6" height="6" fill="#000"/><rect x="132" y="84" width="6" height="6" fill="#000"/><rect x="156" y="84" width="6" height="6" fill="#000"/><rect x="162" y="84" width="6" height="6" fill="#000"/><rect x="168" y="84" width="6" height="6" fill="#000"/><rect x="174" y="84" width="6" height="6" fill="#000"/><rect x="192" y="84" width="6" height="6" fill="#000"/><rect x="210" y="84" width="6" height="6" fill="#000"/><rect x="216" y="84" width="6" height="6" fill="#000"/><rect x="228" y="84" width="6" height="6" fill="#000"/><rect x="30" y="90" width="6" height="6" fill="#000"/><rect x="36" y="90" width="6" height="6" fill="#000"/><rect x="48" y="90" width="6" height="6" fill="#000"/><rect x="54" y="90" width="6" height="6" fill="#000"/><rect x="72" y="90" width="6" height="6" fill="#000"/><rect x="78" y="90" width="6" height="6" fill="#000"/><rect x="84" y="90" width="6" height="6" fill="#000"/><rect x="90" y="90" width="6" height="6" fill="#000"/><rect x="108" y="90" width="6" height="6" fill="#000"/><rect x="114" y="90" width="6" height="6" fill="#000"/><rect x="132" y="90" width="6" height="6" fill="#000"/><rect x="138" y="90" width="6" height="6" fill="#000"/><rect x="168" y="90" width="6" height="6" fill="#000"/><rect x="174" y="90" width="6" height="6" fill="#000"/><rect x="180" y="90" width="6" height="6" fill="#000"/><rect x="192" y="90" width="6" height="6" fill="#000"/><rect x="198" y="90" width="6" height="6" fill="#000"/><rect x="222" y="90" width="6" height="6" fill="#000"/><rect x="228" y="90" width="6" height="6" fill="#000"/><rect x="24" y="96" width="6" height="6" fill="#000"/><rect x="30" y="96" width="6" height="6" fill="#000"/><rect x="36" y="96" width="6" height="6" fill="#000"/><rect x="42" y="96" width="6" height="6" fill="#000"/><rect x="48" y="96" width="6" height="6" fill="#000"/><rect x="60" y="96" width="6" height="6" fill="#000"/><rect x="66" y="96" width="6" height="6" fill="#000"/><rect x="72" y="96" width="6" height="6" fill="#000"/><rect x="90" y="96" width="6" height="6" fill="#000"/><rect x="102" y="96" width="6" height="6" fill="#000"/><rect x="108" y="96" width="6" height="6" fill="#000"/><rect x="126" y="96" width="6" height="6" fill="#000"/><rect x="132" y="96" width="6" height="6" fill="#000"/><rect x="144" y="96" width="6" height="6" fill="#000"/><rect x="168" y="96" width="6" height="6" fill="#000"/><rect x="174" y="96" width="6" height="6" fill="#000"/><rect x="186" y="96" width="6" height="6" fill="#000"/><rect x="198" y="96" width="6" height="6" fill="#000"/><rect x="204" y="96" width="6" height="6" fill="#000"/><rect x="216" y="96" width="6" height="6" fill="#000"/><rect x="222" y="96" width="6" height="6" fill="#000"/><rect x="228" y="96" width="6" height="6" fill="#000"/><rect x="36" y="102" width="6" height="6" fill="#000"/><rect x="42" y="102" width="6" height="6" fill="#000"/><rect x="54" y="102" width="6" height="6" fill="#000"/><rect x="72" y="102" width="6" height="6" fill="#000"/><rect x="84" y="102" width="6" height="6" fill="#000"/><rect x="102" y="102" width="6" height="6" fill="#000"/><rect x="108" y="102" width="6" height="6" fill="#000"/><rect x="114" y="102" width="6" height="6" fill="#000"/><rect x="120" y="102" width="6" height="6" fill="#000"/><rect x="138" y="102" width="6" height="6" fill="#000"/><rect x="144" y="102" width="6" height="6" fill="#000"/><rect x="156" y="102" width="6" height="6" fill="#000"/><rect x="168" y="102" width="6" height="6" fill="#000"/><rect x="186" y="102" width="6" height="6" fill="#000"/><rect x="192" y="102" width="6" height="6" fill="#000"/><rect x="204" y="102" width="6" height="6" fill="#000"/><rect x="210" y="102" width="6" height="6" fill="#000"/><rect x="216" y="102" width="6" height="6" fill="#000"/><rect x="240" y="102" width="6" height="6" fill="#000"/><rect x="24" y="108" width="6" height="6" fill="#000"/><rect x="30" y="108" width="6" height="6" fill="#000"/><rect x="36" y="108" width="6" height="6" fill="#000"/><rect x="42" y="108" width="6" height="6" fill="#000"/><rect x="60" y="108" width="6" height="6" fill="#000"/><rect x="66" y="108" width="6" height="6" fill="#000"/><rect x="72" y="108" width="6" height="6" fill="#000"/><rect x="78" y="108" width="6" height="6" fill="#000"/><rect x="84" y="108" width="6" height="6" fill="#000"/><rect x="90" y="108" width="6" height="6" fill="#000"/><rect x="108" y="108" width="6" height="6" fill="#000"/><rect x="126" y="108" width="6" height="6" fill="#000"/><rect x="132" y="108" width="6" height="6" fill="#000"/><rect x="138" y="108" width="6" height="6" fill="#000"/><rect x="174" y="108" width="6" height="6" fill="#000"/><rect x="180" y="108" width="6" height="6" fill="#000"/><rect x="192" y="108" width="6" height="6" fill="#000"/><rect x="198" y="108" width="6" height="6" fill="#000"/><rect x="210" y="108" width="6" height="6" fill="#000"/><rect x="216" y="108" width="6" height="6" fill="#000"/><rect x="228" y="108" width="6" height="6" fill="#000"/><rect x="24" y="114" width="6" height="6" fill="#000"/><rect x="36" y="114" width="6" height="6" fill="#000"/><rect x="48" y="114" width="6" height="6" fill="#000"/><rect x="54" y="114" width="6" height="6" fill="#000"/><rect x="78" y="114" width="6" height="6" fill="#000"/><rect x="84" y="114" width="6" height="6" fill="#000"/><rect x="90" y="114" width="6" height="6" fill="#000"/><rect x="102" y="114" width="6" height="6" fill="#000"/><rect x="114" y="114" width="6" height="6" fill="#000"/><rect x="120" y="114" width="6" height="6" fill="#000"/><rect x="126" y="114" width="6" height="6" fill="#000"/><rect x="132" y="114" width="6" height="6" fill="#000"/><rect x="144" y="114" width="6" height="6" fill="#000"/><rect x="150" y="114" width="6" height="6" fill="#000"/><rect x="156" y="114" width="6" height="6" fill="#000"/><rect x="180" y="114" width="6" height="6" fill="#000"/><rect x="186" y="114" width="6" height="6" fill="#000"/><rect x="192" y="114" width="6" height="6" fill="#000"/><rect x="204" y="114" width="6" height="6" fill="#000"/><rect x="210" y="114" width="6" height="6" fill="#000"/><rect x="216" y="114" width="6" height="6" fill="#000"/><rect x="222" y="114" width="6" height="6" fill="#000"/><rect x="24" y="120" width="6" height="6" fill="#000"/><rect x="36" y="120" width="6" height="6" fill="#000"/><rect x="48" y="120" width="6" height="6" fill="#000"/><rect x="54" y="120" width="6" height="6" fill="#000"/><rect x="60" y="120" width="6" height="6" fill="#000"/><rect x="96" y="120" width="6" height="6" fill="#000"/><rect x="102" y="120" width="6" height="6" fill="#000"/><rect x="108" y="120" width="6" height="6" fill="#000"/><rect x="114" y="120" width="6" height="6" fill="#000"/><rect x="120" y="120" width="6" height="6" fill="#000"/><rect x="126" y="120" width="6" height="6" fill="#000"/><rect x="132" y="120" width="6" height="6" fill="#000"/><rect x="144" y="120" width="6" height="6" fill="#000"/><rect x="150" y="120" width="6" height="6" fill="#000"/><rect x="156" y="120" width="6" height="6" fill="#000"/><rect x="162" y="120" width="6" height="6" fill="#000"/><rect x="174" y="120" width="6" height="6" fill="#000"/><rect x="198" y="120" width="6" height="6" fill="#000"/><rect x="210" y="120" width="6" height="6" fill="#000"/><rect x="222" y="120" width="6" height="6" fill="#000"/><rect x="228" y="120" width="6" height="6" fill="#000"/><rect x="234" y="120" width="6" height="6" fill="#000"/><rect x="24" y="126" width="6" height="6" fill="#000"/><rect x="48" y="126" width="6" height="6" fill="#000"/><rect x="66" y="126" width="6" height="6" fill="#000"/><rect x="72" y="126" width="6" height="6" fill="#000"/><rect x="96" y="126" width="6" height="6" fill="#000"/><rect x="120" y="126" width="6" height="6" fill="#000"/><rect x="126" y="126" width="6" height="6" fill="#000"/><rect x="138" y="126" width="6" height="6" fill="#000"/><rect x="144" y="126" width="6" height="6" fill="#000"/><rect x="162" y="126" width="6" height="6" fill="#000"/><rect x="168" y="126" width="6" height="6" fill="#000"/><rect x="174" y="126" width="6" height="6" fill="#000"/><rect x="186" y="126" width="6" height="6" fill="#000"/><rect x="198" y="126" width="6" height="6" fill="#000"/><rect x="204" y="126" width="6" height="6" fill="#000"/><rect x="210" y="126" width="6" height="6" fill="#000"/><rect x="228" y="126" width="6" height="6" fill="#000"/><rect x="234" y="126" width="6" height="6" fill="#000"/><rect x="240" y="126" width="6" height="6" fill="#000"/><rect x="24" y="132" width="6" height="6" fill="#000"/><rect x="30" y="132" width="6" height="6" fill="#000"/><rect x="42" y="132" width="6" height="6" fill="#000"/><rect x="54" y="132" width="6" height="6" fill="#000"/><rect x="60" y="132" width="6" height="6" fill="#000"/><rect x="66" y="132" width="6" height="6" fill="#000"/><rect x="72" y="132" width="6" height="6" fill="#000"/><rect x="78" y="132" width="6" height="6" fill="#000"/><rect x="90" y="132" width="6" height="6" fill="#000"/><rect x="114" y="132" width="6" height="6" fill="#000"/><rect x="120" y="132" width="6" height="6" fill="#000"/><rect x="138" y="132" width="6" height="6" fill="#000"/><rect x="150" y="132" width="6" height="6" fill="#000"/><rect x="156" y="132" width="6" height="6" fill="#000"/><rect x="186" y="132" width="6" height="6" fill="#000"/><rect x="216" y="132" width="6" height="6" fill="#000"/><rect x="234" y="132" width="6" height="6" fill="#000"/><rect x="240" y="132" width="6" height="6" fill="#000"/><rect x="30" y="138" width="6" height="6" fill="#000"/><rect x="36" y="138" width="6" height="6" fill="#000"/><rect x="54" y="138" width="6" height="6" fill="#000"/><rect x="72" y="138" width="6" height="6" fill="#000"/><rect x="90" y="138" width="6" height="6" fill="#000"/><rect x="96" y="138" width="6" height="6" fill="#000"/><rect x="108" y="138" width="6" height="6" fill="#000"/><rect x="126" y="138" width="6" height="6" fill="#000"/><rect x="132" y="138" width="6" height="6" fill="#000"/><rect x="138" y="138" width="6" height="6" fill="#000"/><rect x="162" y="138" width="6" height="6" fill="#000"/><rect x="168" y="138" width="6" height="6" fill="#000"/><rect x="198" y="138" width="6" height="6" fill="#000"/><rect x="216" y="138" width="6" height="6" fill="#000"/><rect x="24" y="144" width="6" height="6" fill="#000"/><rect x="36" y="144" width="6" height="6" fill="#000"/><rect x="42" y="144" width="6" height="6" fill="#000"/><rect x="48" y="144" width="6" height="6" fill="#000"/><rect x="60" y="144" width="6" height="6" fill="#000"/><rect x="66" y="144" width="6" height="6" fill="#000"/><rect x="84" y="144" width="6" height="6" fill="#000"/><rect x="96" y="144" width="6" height="6" fill="#000"/><rect x="108" y="144" width="6" height="6" fill="#000"/><rect x="120" y="144" width="6" height="6" fill="#000"/><rect x="126" y="144" width="6" height="6" fill="#000"/><rect x="144" y="144" width="6" height="6" fill="#000"/><rect x="150" y="144" width="6" height="6" fill="#000"/><rect x="156" y="144" width="6" height="6" fill="#000"/><rect x="162" y="144" width="6" height="6" fill="#000"/><rect x="168" y="144" width="6" height="6" fill="#000"/><rect x="186" y="144" width="6" height="6" fill="#000"/><rect x="192" y="144" width="6" height="6" fill="#000"/><rect x="198" y="144" width="6" height="6" fill="#000"/><rect x="210" y="144" width="6" height="6" fill="#000"/><rect x="216" y="144" width="6" height="6" fill="#000"/><rect x="222" y="144" width="6" height="6" fill="#000"/><rect x="234" y="144" width="6" height="6" fill="#000"/><rect x="24" y="150" width="6" height="6" fill="#000"/><rect x="30" y="150" width="6" height="6" fill="#000"/><rect x="36" y="150" width="6" height="6" fill="#000"/><rect x="42" y="150" width="6" height="6" fill="#000"/><rect x="48" y="150" width="6" height="6" fill="#000"/><rect x="66" y="150" width="6" height="6" fill="#000"/><rect x="96" y="150" width="6" height="6" fill="#000"/><rect x="108" y="150" width="6" height="6" fill="#000"/><rect x="138" y="150" width="6" height="6" fill="#000"/><rect x="150" y="150" width="6" height="6" fill="#000"/><rect x="156" y="150" width="6" height="6" fill="#000"/><rect x="162" y="150" width="6" height="6" fill="#000"/><rect x="168" y="150" width="6" height="6" fill="#000"/><rect x="174" y="150" width="6" height="6" fill="#000"/><rect x="180" y="150" width="6" height="6" fill="#000"/><rect x="192" y="150" width="6" height="6" fill="#000"/><rect x="198" y="150" width="6" height="6" fill="#000"/><rect x="222" y="150" width="6" height="6" fill="#000"/><rect x="228" y="150" width="6" height="6" fill="#000"/><rect x="30" y="156" width="6" height="6" fill="#000"/><rect x="36" y="156" width="6" height="6" fill="#000"/><rect x="42" y="156" width="6" height="6" fill="#000"/><rect x="48" y="156" width="6" height="6" fill="#000"/><rect x="60" y="156" width="6" height="6" fill="#000"/><rect x="66" y="156" width="6" height="6" fill="#000"/><rect x="72" y="156" width="6" height="6" fill="#000"/><rect x="78" y="156" width="6" height="6" fill="#000"/><rect x="84" y="156" width="6" height="6" fill="#000"/><rect x="90" y="156" width="6" height="6" fill="#000"/><rect x="96" y="156" width="6" height="6" fill="#000"/><rect x="102" y="156" width="6" height="6" fill="#000"/><rect x="126" y="156" width="6" height="6" fill="#000"/><rect x="156" y="156" width="6" height="6" fill="#000"/><rect x="162" y="156" width="6" height="6" fill="#000"/><rect x="210" y="156" width="6" height="6" fill="#000"/><rect x="216" y="156" width="6" height="6" fill="#000"/><rect x="228" y="156" width="6" height="6" fill="#000"/><rect x="30" y="162" width="6" height="6" fill="#000"/><rect x="36" y="162" width="6" height="6" fill="#000"/><rect x="42" y="162" width="6" height="6" fill="#000"/><rect x="54" y="162" width="6" height="6" fill="#000"/><rect x="78" y="162" width="6" height="6" fill="#000"/><rect x="90" y="162" width="6" height="6" fill="#000"/><rect x="102" y="162" width="6" height="6" fill="#000"/><rect x="120" y="162" width="6" height="6" fill="#000"/><rect x="132" y="162" width="6" height="6" fill="#000"/><rect x="138" y="162" width="6" height="6" fill="#000"/><rect x="144" y="162" width="6" height="6" fill="#000"/><rect x="156" y="162" width="6" height="6" fill="#000"/><rect x="168" y="162" width="6" height="6" fill="#000"/><rect x="174" y="162" width="6" height="6" fill="#000"/><rect x="186" y="162" width="6" height="6" fill="#000"/><rect x="198" y="162" width="6" height="6" fill="#000"/><rect x="228" y="162" width="6" height="6" fill="#000"/><rect x="240" y="162" width="6" height="6" fill="#000"/><rect x="30" y="168" width="6" height="6" fill="#000"/><rect x="36" y="168" width="6" height="6" fill="#000"/><rect x="42" y="168" width="6" height="6" fill="#000"/><rect x="48" y="168" width="6" height="6" fill="#000"/><rect x="54" y="168" width="6" height="6" fill="#000"/><rect x="60" y="168" width="6" height="6" fill="#000"/><rect x="66" y="168" width="6" height="6" fill="#000"/><rect x="84" y="168" width="6" height="6" fill="#000"/><rect x="90" y="168" width="6" height="6" fill="#000"/><rect x="102" y="168" width="6" height="6" fill="#000"/><rect x="108" y="168" width="6" height="6" fill="#000"/><rect x="114" y="168" width="6" height="6" fill="#000"/><rect x="132" y="168" width="6" height="6" fill="#000"/><rect x="138" y="168" width="6" height="6" fill="#000"/><rect x="144" y="168" width="6" height="6" fill="#000"/><rect x="156" y="168" width="6" height="6" fill="#000"/><rect x="168" y="168" width="6" height="6" fill="#000"/><rect x="174" y="168" width="6" height="6" fill="#000"/><rect x="204" y="168" width="6" height="6" fill="#000"/><rect x="216" y="168" width="6" height="6" fill="#000"/><rect x="222" y="168" width="6" height="6" fill="#000"/><rect x="228" y="168" width="6" height="6" fill="#000"/><rect x="234" y="168" width="6" height="6" fill="#000"/><rect x="240" y="168" width="6" height="6" fill="#000"/><rect x="42" y="174" width="6" height="6" fill="#000"/><rect x="90" y="174" width="6" height="6" fill="#000"/><rect x="96" y="174" width="6" height="6" fill="#000"/><rect x="102" y="174" width="6" height="6" fill="#000"/><rect x="108" y="174" width="6" height="6" fill="#000"/><rect x="120" y="174" width="6" height="6" fill="#000"/><rect x="132" y="174" width="6" height="6" fill="#000"/><rect x="144" y="174" width="6" height="6" fill="#000"/><rect x="168" y="174" width="6" height="6" fill="#000"/><rect x="180" y="174" width="6" height="6" fill="#000"/><rect x="186" y="174" width="6" height="6" fill="#000"/><rect x="192" y="174" width="6" height="6" fill="#000"/><rect x="204" y="174" width="6" height="6" fill="#000"/><rect x="210" y="174" width="6" height="6" fill="#000"/><rect x="216" y="174" width="6" height="6" fill="#000"/><rect x="234" y="174" width="6" height="6" fill="#000"/><rect x="240" y="174" width="6" height="6" fill="#000"/><rect x="30" y="180" width="6" height="6" fill="#000"/><rect x="36" y="180" width="6" height="6" fill="#000"/><rect x="54" y="180" width="6" height="6" fill="#000"/><rect x="60" y="180" width="6" height="6" fill="#000"/><rect x="78" y="180" width="6" height="6" fill="#000"/><rect x="102" y="180" width="6" height="6" fill="#000"/><rect x="114" y="180" width="6" height="6" fill="#000"/><rect x="120" y="180" width="6" height="6" fill="#000"/><rect x="138" y="180" width="6" height="6" fill="#000"/><rect x="144" y="180" width="6" height="6" fill="#000"/><rect x="156" y="180" width="6" height="6" fill="#000"/><rect x="168" y="180" width="6" height="6" fill="#000"/><rect x="210" y="180" width="6" height="6" fill="#000"/><rect x="234" y="180" width="6" height="6" fill="#000"/><rect x="24" y="186" width="6" height="6" fill="#000"/><rect x="36" y="186" width="6" height="6" fill="#000"/><rect x="48" y="186" width="6" height="6" fill="#000"/><rect x="66" y="186" width="6" height="6" fill="#000"/><rect x="78" y="186" width="6" height="6" fill="#000"/><rect x="84" y="186" width="6" height="6" fill="#000"/><rect x="96" y="186" width="6" height="6" fill="#000"/><rect x="108" y="186" width="6" height="6" fill="#000"/><rect x="120" y="186" width="6" height="6" fill="#000"/><rect x="150" y="186" width="6" height="6" fill="#000"/><rect x="168" y="186" width="6" height="6" fill="#000"/><rect x="180" y="186" width="6" height="6" fill="#000"/><rect x="204" y="186" width="6" height="6" fill="#000"/><rect x="222" y="186" width="6" height="6" fill="#000"/><rect x="234" y="186" width="6" height="6" fill="#000"/><rect x="54" y="192" width="6" height="6" fill="#000"/><rect x="60" y="192" width="6" height="6" fill="#000"/><rect x="72" y="192" width="6" height="6" fill="#000"/><rect x="78" y="192" width="6" height="6" fill="#000"/><rect x="84" y="192" width="6" height="6" fill="#000"/><rect x="90" y="192" width="6" height="6" fill="#000"/><rect x="96" y="192" width="6" height="6" fill="#000"/><rect x="114" y="192" width="6" height="6" fill="#000"/><rect x="120" y="192" width="6" height="6" fill="#000"/><rect x="132" y="192" width="6" height="6" fill="#000"/><rect x="144" y="192" width="6" height="6" fill="#000"/><rect x="150" y="192" width="6" height="6" fill="#000"/><rect x="162" y="192" width="6" height="6" fill="#000"/><rect x="174" y="192" width="6" height="6" fill="#000"/><rect x="192" y="192" width="6" height="6" fill="#000"/><rect x="198" y="192" width="6" height="6" fill="#000"/><rect x="204" y="192" width="6" height="6" fill="#000"/><rect x="210" y="192" width="6" height="6" fill="#000"/><rect x="216" y="192" width="6" height="6" fill="#000"/><rect x="222" y="192" width="6" height="6" fill="#000"/><rect x="228" y="192" width="6" height="6" fill="#000"/><rect x="72" y="198" width="6" height="6" fill="#000"/><rect x="90" y="198" width="6" height="6" fill="#000"/><rect x="102" y="198" width="6" height="6" fill="#000"/><rect x="108" y="198" width="6" height="6" fill="#000"/><rect x="114" y="198" width="6" height="6" fill="#000"/><rect x="120" y="198" width="6" height="6" fill="#000"/><rect x="126" y="198" width="6" height="6" fill="#000"/><rect x="162" y="198" width="6" height="6" fill="#000"/><rect x="168" y="198" width="6" height="6" fill="#000"/><rect x="192" y="198" width="6" height="6" fill="#000"/><rect x="216" y="198" width="6" height="6" fill="#000"/><rect x="222" y="198" width="6" height="6" fill="#000"/><rect x="240" y="198" width="6" height="6" fill="#000"/><rect x="24" y="204" width="6" height="6" fill="#000"/><rect x="30" y="204" width="6" height="6" fill="#000"/><rect x="36" y="204" width="6" height="6" fill="#000"/><rect x="42" y="204" width="6" height="6" fill="#000"/><rect x="48" y="204" width="6" height="6" fill="#000"/><rect x="54" y="204" width="6" height="6" fill="#000"/><rect x="60" y="204" width="6" height="6" fill="#000"/><rect x="72" y="204" width="6" height="6" fill="#000"/><rect x="78" y="204" width="6" height="6" fill="#000"/><rect x="96" y="204" width="6" height="6" fill="#000"/><rect x="102" y="204" width="6" height="6" fill="#000"/><rect x="108" y="204" width="6" height="6" fill="#000"/><rect x="114" y="204" width="6" height="6" fill="#000"/><rect x="120" y="204" width="6" height="6" fill="#000"/><rect x="126" y="204" width="6" height="6" fill="#000"/><rect x="144" y="204" width="6" height="6" fill="#000"/><rect x="150" y="204" width="6" height="6" fill="#000"/><rect x="168" y="204" width="6" height="6" fill="#000"/><rect x="180" y="204" width="6" height="6" fill="#000"/><rect x="192" y="204" width="6" height="6" fill="#000"/><rect x="204" y="204" width="6" height="6" fill="#000"/><rect x="216" y="204" width="6" height="6" fill="#000"/><rect x="228" y="204" width="6" height="6" fill="#000"/><rect x="234" y="204" width="6" height="6" fill="#000"/><rect x="240" y="204" width="6" height="6" fill="#000"/><rect x="24" y="210" width="6" height="6" fill="#000"/><rect x="60" y="210" width="6" height="6" fill="#000"/><rect x="72" y="210" width="6" height="6" fill="#000"/><rect x="78" y="210" width="6" height="6" fill="#000"/><rect x="102" y="210" width="6" height="6" fill="#000"/><rect x="138" y="210" width="6" height="6" fill="#000"/><rect x="144" y="210" width="6" height="6" fill="#000"/><rect x="156" y="210" width="6" height="6" fill="#000"/><rect x="192" y="210" width="6" height="6" fill="#000"/><rect x="216" y="210" width="6" height="6" fill="#000"/><rect x="240" y="210" width="6" height="6" fill="#000"/><rect x="24" y="216" width="6" height="6" fill="#000"/><rect x="36" y="216" width="6" height="6" fill="#000"/><rect x="42" y="216" width="6" height="6" fill="#000"/><rect x="48" y="216" width="6" height="6" fill="#000"/><rect x="60" y="216" width="6" height="6" fill="#000"/><rect x="102" y="216" width="6" height="6" fill="#000"/><rect x="108" y="216" width="6" height="6" fill="#000"/><rect x="114" y="216" width="6" height="6" fill="#000"/><rect x="132" y="216" width="6" height="6" fill="#000"/><rect x="138" y="216" width="6" height="6" fill="#000"/><rect x="156" y="216" width="6" height="6" fill="#000"/><rect x="180" y="216" width="6" height="6" fill="#000"/><rect x="192" y="216" width="6" height="6" fill="#000"/><rect x="198" y="216" width="6" height="6" fill="#000"/><rect x="204" y="216" width="6" height="6" fill="#000"/><rect x="210" y="216" width="6" height="6" fill="#000"/><rect x="216" y="216" width="6" height="6" fill="#000"/><rect x="24" y="222" width="6" height="6" fill="#000"/><rect x="36" y="222" width="6" height="6" fill="#000"/><rect x="42" y="222" width="6" height="6" fill="#000"/><rect x="48" y="222" width="6" height="6" fill="#000"/><rect x="60" y="222" width="6" height="6" fill="#000"/><rect x="72" y="222" width="6" height="6" fill="#000"/><rect x="78" y="222" width="6" height="6" fill="#000"/><rect x="102" y="222" width="6" height="6" fill="#000"/><rect x="114" y="222" width="6" height="6" fill="#000"/><rect x="132" y="222" width="6" height="6" fill="#000"/><rect x="144" y="222" width="6" height="6" fill="#000"/><rect x="162" y="222" width="6" height="6" fill="#000"/><rect x="192" y="222" width="6" height="6" fill="#000"/><rect x="198" y="222" width="6" height="6" fill="#000"/><rect x="204" y="222" width="6" height="6" fill="#000"/><rect x="210" y="222" width="6" height="6" fill="#000"/><rect x="216" y="222" width="6" height="6" fill="#000"/><rect x="222" y="222" width="6" height="6" fill="#000"/><rect x="240" y="222" width="6" height="6" fill="#000"/><rect x="24" y="228" width="6" height="6" fill="#000"/><rect x="36" y="228" width="6" height="6" fill="#000"/><rect x="42" y="228" width="6" height="6" fill="#000"/><rect x="48" y="228" width="6" height="6" fill="#000"/><rect x="60" y="228" width="6" height="6" fill="#000"/><rect x="72" y="228" width="6" height="6" fill="#000"/><rect x="78" y="228" width="6" height="6" fill="#000"/><rect x="84" y="228" width="6" height="6" fill="#000"/><rect x="90" y="228" width="6" height="6" fill="#000"/><rect x="102" y="228" width="6" height="6" fill="#000"/><rect x="108" y="228" width="6" height="6" fill="#000"/><rect x="120" y="228" width="6" height="6" fill="#000"/><rect x="138" y="228" width="6" height="6" fill="#000"/><rect x="144" y="228" width="6" height="6" fill="#000"/><rect x="162" y="228" width="6" height="6" fill="#000"/><rect x="186" y="228" width="6" height="6" fill="#000"/><rect x="192" y="228" width="6" height="6" fill="#000"/><rect x="198" y="228" width="6" height="6" fill="#000"/><rect x="204" y="228" width="6" height="6" fill="#000"/><rect x="210" y="228" width="6" height="6" fill="#000"/><rect x="216" y="228" width="6" height="6" fill="#000"/><rect x="24" y="234" width="6" height="6" fill="#000"/><rect x="60" y="234" width="6" height="6" fill="#000"/><rect x="78" y="234" width="6" height="6" fill="#000"/><rect x="84" y="234" width="6" height="6" fill="#000"/><rect x="96" y="234" width="6" height="6" fill="#000"/><rect x="102" y="234" width="6" height="6" fill="#000"/><rect x="108" y="234" width="6" height="6" fill="#000"/><rect x="120" y="234" width="6" height="6" fill="#000"/><rect x="132" y="234" width="6" height="6" fill="#000"/><rect x="144" y="234" width="6" height="6" fill="#000"/><rect x="162" y="234" width="6" height="6" fill="#000"/><rect x="168" y="234" width="6" height="6" fill="#000"/><rect x="174" y="234" width="6" height="6" fill="#000"/><rect x="198" y="234" width="6" height="6" fill="#000"/><rect x="204" y="234" width="6" height="6" fill="#000"/><rect x="216" y="234" width="6" height="6" fill="#000"/><rect x="228" y="234" width="6" height="6" fill="#000"/><rect x="24" y="240" width="6" height="6" fill="#000"/><rect x="30" y="240" width="6" height="6" fill="#000"/><rect x="36" y="240" width="6" height="6" fill="#000"/><rect x="42" y="240" width="6" height="6" fill="#000"/><rect x="48" y="240" width="6" height="6" fill="#000"/><rect x="54" y="240" width="6" height="6" fill="#000"/><rect x="60" y="240" width="6" height="6" fill="#000"/><rect x="72" y="240" width="6" height="6" fill="#000"/><rect x="78" y="240" width="6" height="6" fill="#000"/><rect x="90" y="240" width="6" height="6" fill="#000"/><rect x="96" y="240" width="6" height="6" fill="#000"/><rect x="102" y="240" width="6" height="6" fill="#000"/><rect x="114" y="240" width="6" height="6" fill="#000"/><rect x="120" y="240" width="6" height="6" fill="#000"/><rect x="126" y="240" width="6" height="6" fill="#000"/><rect x="132" y="240" width="6" height="6" fill="#000"/><rect x="138" y="240" width="6" height="6" fill="#000"/><rect x="156" y="240" width="6" height="6" fill="#000"/><rect x="162" y="240" width="6" height="6" fill="#000"/><rect x="174" y="240" width="6" height="6" fill="#000"/><rect x="198" y="240" width="6" height="6" fill="#000"/><rect x="210" y="240" width="6" height="6" fill="#000"/><rect x="216" y="240" width="6" height="6" fill="#000"/><rect x="228" y="240" width="6" height="6" fill="#000"/><rect x="234" y="240" width="6" height="6" fill="#000"/><rect x="240" y="240" width="6" height="6" fill="#000"/></svg>